HIERARCHY
ROOT mixamorig:Hips
{
	OFFSET -0.000008 104.274872 1.554316
	CHANNELS 6 Xposition Yposition Zposition Xrotation Yrotation Zrotation
	JOINT mixamorig:Spine
	{
		OFFSET -0.000005 10.181595 0.131519
		CHANNELS 6 Xposition Yposition Zposition Xrotation Yrotation Zrotation
		JOINT mixamorig:Spine1
		{
			OFFSET -0.000000 9.893959 -1.470707
			CHANNELS 6 Xposition Yposition Zposition Xrotation Yrotation Zrotation
			JOINT mixamorig:Spine2
			{
				OFFSET -0.000000 9.220757 -1.370641
				CHANNELS 6 Xposition Yposition Zposition Xrotation Yrotation Zrotation
				JOINT mixamorig:Neck
				{
					OFFSET 0.000001 16.740417 -2.049036
					CHANNELS 6 Xposition Yposition Zposition Xrotation Yrotation Zrotation
					JOINT mixamorig:Head
					{
						OFFSET 0.000000 9.617874 1.685006
						CHANNELS 6 Xposition Yposition Zposition Xrotation Yrotation Zrotation
						JOINT mixamorig:HeadTop_End
						{
							OFFSET 0.000002 22.037354 7.501101
							CHANNELS 6 Xposition Yposition Zposition Xrotation Yrotation Zrotation
							End Site
							{
								OFFSET 0.000168 2310.654297 -282.823242
							}
						}
					}
				}
				JOINT mixamorig:RightShoulder
				{
					OFFSET -4.569970 11.014908 -2.160885
					CHANNELS 6 Xposition Yposition Zposition Xrotation Yrotation Zrotation
					JOINT mixamorig:RightArm
					{
						OFFSET -10.592851 -0.524811 -2.232101
						CHANNELS 6 Xposition Yposition Zposition Xrotation Yrotation Zrotation
						JOINT mixamorig:RightForeArm
						{
							OFFSET -27.841511 0.000031 -0.000004
							CHANNELS 6 Xposition Yposition Zposition Xrotation Yrotation Zrotation
							JOINT mixamorig:RightHand
							{
								OFFSET -28.328831 -0.000015 0.000015
								CHANNELS 6 Xposition Yposition Zposition Xrotation Yrotation Zrotation
								JOINT mixamorig:RightHandThumb1
								{
									OFFSET -2.464806 -1.573990 2.681852
									CHANNELS 6 Xposition Yposition Zposition Xrotation Yrotation Zrotation
									JOINT mixamorig:RightHandThumb2
									{
										OFFSET -3.215179 -1.872803 1.924282
										CHANNELS 6 Xposition Yposition Zposition Xrotation Yrotation Zrotation
										JOINT mixamorig:RightHandThumb3
										{
											OFFSET -2.654831 -1.527969 1.512609
											CHANNELS 6 Xposition Yposition Zposition Xrotation Yrotation Zrotation
											JOINT mixamorig:RightHandThumb4
											{
												OFFSET -2.018814 -1.152008 1.108052
												CHANNELS 6 Xposition Yposition Zposition Xrotation Yrotation Zrotation
												End Site
												{
													OFFSET -188.809540 -114.533607 132.431396
												}
											}
										}
									}
								}
								JOINT mixamorig:RightHandIndex1
								{
									OFFSET -9.108284 -0.517868 2.259835
									CHANNELS 6 Xposition Yposition Zposition Xrotation Yrotation Zrotation
									JOINT mixamorig:RightHandIndex2
									{
										OFFSET -3.699989 0.000000 0.001215
										CHANNELS 6 Xposition Yposition Zposition Xrotation Yrotation Zrotation
										JOINT mixamorig:RightHandIndex3
										{
											OFFSET -2.850006 0.000031 -0.000522
											CHANNELS 6 Xposition Yposition Zposition Xrotation Yrotation Zrotation
											JOINT mixamorig:RightHandIndex4
											{
												OFFSET -2.772186 -0.000015 -0.000020
												CHANNELS 6 Xposition Yposition Zposition Xrotation Yrotation Zrotation
												End Site
												{
													OFFSET -277.218445 0.000000 -0.050231
												}
											}
										}
									}
								}
								JOINT mixamorig:RightHandMiddle1
								{
									OFFSET -9.532516 -0.000031 -0.000023
									CHANNELS 6 Xposition Yposition Zposition Xrotation Yrotation Zrotation
									JOINT mixamorig:RightHandMiddle2
									{
										OFFSET -3.700005 -0.000015 0.003713
										CHANNELS 6 Xposition Yposition Zposition Xrotation Yrotation Zrotation
										JOINT mixamorig:RightHandMiddle3
										{
											OFFSET -2.949974 0.000015 -0.002054
											CHANNELS 6 Xposition Yposition Zposition Xrotation Yrotation Zrotation
											JOINT mixamorig:RightHandMiddle4
											{
												OFFSET -2.946640 0.000000 -0.000156
												CHANNELS 6 Xposition Yposition Zposition Xrotation Yrotation Zrotation
												End Site
												{
													OFFSET -294.664337 0.000000 -0.113670
												}
											}
										}
									}
								}
								JOINT mixamorig:RightHandRing1
								{
									OFFSET -9.103600 -0.043076 -1.865134
									CHANNELS 6 Xposition Yposition Zposition Xrotation Yrotation Zrotation
									JOINT mixamorig:RightHandRing2
									{
										OFFSET -3.379288 0.000000 -0.001055
										CHANNELS 6 Xposition Yposition Zposition Xrotation Yrotation Zrotation
										JOINT mixamorig:RightHandRing3
										{
											OFFSET -2.889687 -0.000015 0.000379
											CHANNELS 6 Xposition Yposition Zposition Xrotation Yrotation Zrotation
											JOINT mixamorig:RightHandRing4
											{
												OFFSET -2.638809 -0.000015 0.000941
												CHANNELS 6 Xposition Yposition Zposition Xrotation Yrotation Zrotation
												End Site
												{
													OFFSET -263.880371 0.000000 0.516020
												}
											}
										}
									}
								}
								JOINT mixamorig:RightHandPinky1
								{
									OFFSET -8.076683 -0.486710 -3.806280
									CHANNELS 6 Xposition Yposition Zposition Xrotation Yrotation Zrotation
									JOINT mixamorig:RightHandPinky2
									{
										OFFSET -3.600014 -0.000015 -0.003747
										CHANNELS 6 Xposition Yposition Zposition Xrotation Yrotation Zrotation
										JOINT mixamorig:RightHandPinky3
										{
											OFFSET -2.099983 0.000000 -0.005739
											CHANNELS 6 Xposition Yposition Zposition Xrotation Yrotation Zrotation
											JOINT mixamorig:RightHandPinky4
											{
												OFFSET -2.115768 -0.000031 -0.003680
												CHANNELS 6 Xposition Yposition Zposition Xrotation Yrotation Zrotation
												End Site
												{
													OFFSET -211.577087 0.000000 -0.350686
												}
											}
										}
									}
								}
							}
						}
					}
				}
				JOINT mixamorig:LeftShoulder
				{
					OFFSET 4.570447 11.014725 -2.160855
					CHANNELS 6 Xposition Yposition Zposition Xrotation Yrotation Zrotation
					JOINT mixamorig:LeftArm
					{
						OFFSET 10.592371 -0.524597 -2.232119
						CHANNELS 6 Xposition Yposition Zposition Xrotation Yrotation Zrotation
						JOINT mixamorig:LeftForeArm
						{
							OFFSET 27.841532 -0.000031 0.000026
							CHANNELS 6 Xposition Yposition Zposition Xrotation Yrotation Zrotation
							JOINT mixamorig:LeftHand
							{
								OFFSET 28.328846 -0.000061 0.000022
								CHANNELS 6 Xposition Yposition Zposition Xrotation Yrotation Zrotation
								JOINT mixamorig:LeftHandThumb1
								{
									OFFSET 2.466141 -1.576172 2.681732
									CHANNELS 6 Xposition Yposition Zposition Xrotation Yrotation Zrotation
									JOINT mixamorig:LeftHandThumb2
									{
										OFFSET 3.217812 -1.872070 1.916482
										CHANNELS 6 Xposition Yposition Zposition Xrotation Yrotation Zrotation
										JOINT mixamorig:LeftHandThumb3
										{
											OFFSET 2.656029 -1.528778 1.514513
											CHANNELS 6 Xposition Yposition Zposition Xrotation Yrotation Zrotation
											JOINT mixamorig:LeftHandThumb4
											{
												OFFSET 2.020889 -1.154053 1.115139
												CHANNELS 6 Xposition Yposition Zposition Xrotation Yrotation Zrotation
												End Site
												{
													OFFSET 190.885437 -115.081749 130.048782
												}
											}
										}
									}
								}
								JOINT mixamorig:LeftHandIndex1
								{
									OFFSET 9.109314 -0.518021 2.259871
									CHANNELS 6 Xposition Yposition Zposition Xrotation Yrotation Zrotation
									JOINT mixamorig:LeftHandIndex2
									{
										OFFSET 3.699989 0.000000 -0.000322
										CHANNELS 6 Xposition Yposition Zposition Xrotation Yrotation Zrotation
										JOINT mixamorig:LeftHandIndex3
										{
											OFFSET 2.850006 0.000000 0.000352
											CHANNELS 6 Xposition Yposition Zposition Xrotation Yrotation Zrotation
											JOINT mixamorig:LeftHandIndex4
											{
												OFFSET 2.774864 -0.000031 -0.000027
												CHANNELS 6 Xposition Yposition Zposition Xrotation Yrotation Zrotation
												End Site
												{
													OFFSET 277.486267 0.000000 -0.009857
												}
											}
										}
									}
								}
								JOINT mixamorig:LeftHandMiddle1
								{
									OFFSET 9.533394 0.000061 0.000044
									CHANNELS 6 Xposition Yposition Zposition Xrotation Yrotation Zrotation
									JOINT mixamorig:LeftHandMiddle2
									{
										OFFSET 3.699989 -0.000015 -0.000231
										CHANNELS 6 Xposition Yposition Zposition Xrotation Yrotation Zrotation
										JOINT mixamorig:LeftHandMiddle3
										{
											OFFSET 2.949997 -0.000015 -0.000059
											CHANNELS 6 Xposition Yposition Zposition Xrotation Yrotation Zrotation
											JOINT mixamorig:LeftHandMiddle4
											{
												OFFSET 2.952896 0.000031 0.000063
												CHANNELS 6 Xposition Yposition Zposition Xrotation Yrotation Zrotation
												End Site
												{
													OFFSET 295.289337 0.000000 0.022810
												}
											}
										}
									}
								}
								JOINT mixamorig:LeftHandRing1
								{
									OFFSET 9.104523 -0.042999 -1.865074
									CHANNELS 6 Xposition Yposition Zposition Xrotation Yrotation Zrotation
									JOINT mixamorig:LeftHandRing2
									{
										OFFSET 3.150009 -0.000031 0.000043
										CHANNELS 6 Xposition Yposition Zposition Xrotation Yrotation Zrotation
										JOINT mixamorig:LeftHandRing3
										{
											OFFSET 2.949982 -0.000015 0.000040
											CHANNELS 6 Xposition Yposition Zposition Xrotation Yrotation Zrotation
											JOINT mixamorig:LeftHandRing4
											{
												OFFSET 2.644348 0.000000 0.000057
												CHANNELS 6 Xposition Yposition Zposition Xrotation Yrotation Zrotation
												End Site
												{
													OFFSET 264.434631 0.000000 0.012105
												}
											}
										}
									}
								}
								JOINT mixamorig:LeftHandPinky1
								{
									OFFSET 8.077789 -0.486847 -3.806259
									CHANNELS 6 Xposition Yposition Zposition Xrotation Yrotation Zrotation
									JOINT mixamorig:LeftHandPinky2
									{
										OFFSET 3.599953 0.000031 0.014727
										CHANNELS 6 Xposition Yposition Zposition Xrotation Yrotation Zrotation
										JOINT mixamorig:LeftHandPinky3
										{
											OFFSET 2.100021 0.000015 0.007705
											CHANNELS 6 Xposition Yposition Zposition Xrotation Yrotation Zrotation
											JOINT mixamorig:LeftHandPinky4
											{
												OFFSET 2.125504 0.000031 0.007517
												CHANNELS 6 Xposition Yposition Zposition Xrotation Yrotation Zrotation
												End Site
												{
													OFFSET 212.550781 0.000000 0.625752
												}
											}
										}
									}
								}
							}
						}
					}
				}
			}
		}
	}
	JOINT mixamorig:RightUpLeg
	{
		OFFSET -8.207787 -6.751648 -1.599560
		CHANNELS 6 Xposition Yposition Zposition Xrotation Yrotation Zrotation
		JOINT mixamorig:RightLeg
		{
			OFFSET -0.000002 -44.370117 0.345942
			CHANNELS 6 Xposition Yposition Zposition Xrotation Yrotation Zrotation
			JOINT mixamorig:RightFoot
			{
				OFFSET 0.000003 -44.423679 -3.043532
				CHANNELS 6 Xposition Yposition Zposition Xrotation Yrotation Zrotation
				JOINT mixamorig:RightToeBase
				{
					OFFSET -0.000002 -8.728671 10.710558
					CHANNELS 6 Xposition Yposition Zposition Xrotation Yrotation Zrotation
					JOINT mixamorig:RightToe_End
					{
						OFFSET -0.000001 -0.000679 9.278119
						CHANNELS 6 Xposition Yposition Zposition Xrotation Yrotation Zrotation
						End Site
						{
							OFFSET 0.000000 -0.067690 927.812134
						}
					}
				}
			}
		}
	}
	JOINT mixamorig:LeftUpLeg
	{
		OFFSET 8.207793 -6.751686 -1.599556
		CHANNELS 6 Xposition Yposition Zposition Xrotation Yrotation Zrotation
		JOINT mixamorig:LeftLeg
		{
			OFFSET -0.000004 -44.370014 0.346954
			CHANNELS 6 Xposition Yposition Zposition Xrotation Yrotation Zrotation
			JOINT mixamorig:LeftFoot
			{
				OFFSET -0.000001 -44.423672 -3.044401
				CHANNELS 6 Xposition Yposition Zposition Xrotation Yrotation Zrotation
				JOINT mixamorig:LeftToeBase
				{
					OFFSET -0.000002 -8.728669 10.710558
					CHANNELS 6 Xposition Yposition Zposition Xrotation Yrotation Zrotation
					JOINT mixamorig:LeftToe_End
					{
						OFFSET -0.000003 -0.000679 9.278133
						CHANNELS 6 Xposition Yposition Zposition Xrotation Yrotation Zrotation
						End Site
						{
							OFFSET 0.000000 -0.068021 927.813477
						}
					}
				}
			}
		}
	}
}
MOTION
Frames: 3
Frame Time: 0.033333
0.000006 104.270477 1.554256 0.000010 0.000003 -0.000113 -0.000005 10.181587 0.131522 0.000001 -0.000003 0.000084 -0.000000 9.893967 -1.470711 0.000001 0.000000 -0.000000 -0.000000 9.220802 -1.370642 0.000000 -0.000000 -0.000000 0.000001 16.740433 -2.049030 0.000000 -0.000000 -0.000000 0.000000 9.617859 1.685014 0.000000 0.000000 0.000000 0.000002 22.037384 7.501101 0.000000 -0.000000 0.000000 -4.569968 11.014880 -2.160881 0.000008 0.000001 -0.000038 -10.592877 -0.524744 -2.231936 74.533743 23.838021 -18.248365 -27.841515 0.000011 0.000546 -53.119416 106.575888 67.671841 -28.328814 0.000010 0.000026 -0.000320 -0.000043 0.000007 -2.464396 -1.573864 2.682354 -40.934478 -155.527041 5.022717 -3.215259 -1.872547 1.924636 152.898060 33.624277 18.549674 -2.654948 -1.527871 1.513080 147.027021 26.839087 -37.954545 -2.018826 -1.152013 1.108068 -0.000007 -0.000005 -0.000001 -9.108391 -0.517564 2.260136 101.476517 16.399313 -20.052875 -3.700071 0.000313 0.001536 99.251453 13.300865 -15.588326 -2.850085 0.000372 -0.000249 97.464279 10.947362 -12.462875 -2.772170 -0.000014 -0.000019 0.000001 -0.000001 -0.000001 -9.532601 0.000269 0.000237 94.816966 16.580557 -18.168856 -3.700070 0.000329 0.003981 94.895124 11.061239 -11.940328 -2.950054 0.000340 -0.001777 97.289734 10.695644 -12.132796 -2.946627 0.000015 -0.000153 0.000001 -0.000000 -0.000002 -9.103701 -0.042771 -1.864866 93.300165 17.603023 -18.582107 -3.379323 0.000327 -0.000808 94.953980 8.016777 -8.757550 -2.889740 0.000362 0.000652 102.084117 6.070817 -7.560062 -2.638814 -0.000000 0.000941 -0.000002 0.000000 -0.000001 -8.076762 -0.486413 -3.806025 83.936967 19.776876 -17.681572 -3.600065 0.000277 -0.003527 87.791044 8.764243 -8.090739 -2.100001 0.000323 -0.005479 93.283500 4.518625 -4.556474 -2.115763 -0.000054 -0.003678 0.000005 -0.000001 -0.000002 4.570446 11.014691 -2.160851 -0.000018 0.000010 -0.000021 10.592545 -0.524515 -2.232408 81.067898 -63.450982 55.726462 27.841787 -0.000042 -0.000122 -153.943298 -75.751900 -146.865446 28.328838 -0.000027 0.000028 0.000020 -0.000088 -0.000000 2.466197 -1.576096 2.681900 100.995480 161.590992 -154.475451 3.217802 -1.872001 1.916564 245.873368 42.394605 415.498739 2.655992 -1.528830 1.514619 43.669241 -231.797441 260.549806 2.020895 -1.154060 1.115140 -0.000000 -0.000002 0.000001 9.109099 -0.517695 2.259994 -163.434242 -10.846822 -66.205474 3.699806 0.000332 -0.000174 22.079712 -169.001324 127.442095 2.849866 0.000391 0.000501 -157.067481 -8.782561 -41.469439 2.774871 -0.000051 -0.000015 0.000002 -0.000000 0.000000 9.533304 0.000430 0.000177 -158.805382 -5.679890 -29.673777 3.700004 0.000303 -0.000034 226.958935 -1.046270 -2.403311 2.949973 0.000250 0.000155 239.067713 -6.547814 -11.534506 2.952881 -0.000015 0.000068 0.000001 -0.000003 -0.000000 9.104507 -0.042622 -1.864931 -155.368212 -1.304553 -5.976973 3.150049 0.000233 0.000226 244.629427 11.617197 18.269993 2.950005 0.000098 0.000230 -257.923762 171.432202 186.931745 2.644328 0.000031 0.000058 0.000001 0.000000 -0.000001 8.077773 -0.486474 -3.806119 23.776017 -179.312369 174.610385 3.600013 0.000233 0.014928 246.165045 12.545225 18.383953 2.100038 0.000112 0.007886 -437.809006 15.419415 372.064282 2.125501 -0.000016 0.007516 0.000001 0.000000 0.000001 -8.207786 -6.751667 -1.599560 -0.077001 -0.000003 0.000080 -0.000002 -44.370110 0.345938 0.153719 -0.000000 -0.000000 0.000000 -44.423679 -3.043532 -0.076700 0.000000 -0.000002 -0.000006 -8.728667 10.710559 -0.000009 -0.000000 -0.000000 -0.000001 -0.000679 9.278123 0.000000 -0.000000 -0.000000 8.207792 -6.751710 -1.599556 -0.074518 -0.000003 0.000081 -0.000002 -44.370014 0.346960 0.148822 0.000002 0.000000 -0.000001 -44.423664 -3.044403 -0.074314 0.000000 -0.000002 -0.000004 -8.728671 10.710558 0.000007 -0.000000 -0.000000 0.000000 -0.000680 9.278137 -0.000000 0.000000 -0.000001 
0.000006 104.270477 1.554256 0.000010 0.000003 -0.000113 -0.000005 10.181587 0.131522 0.000001 -0.000003 0.000084 -0.000000 9.893967 -1.470711 0.000001 0.000000 -0.000000 -0.000000 9.220802 -1.370642 0.000000 -0.000000 -0.000000 0.000001 16.740433 -2.049030 0.000000 -0.000000 -0.000000 0.000000 9.617859 1.685014 0.000000 0.000000 0.000000 0.000002 22.037384 7.501101 0.000000 -0.000000 0.000000 -4.569968 11.014880 -2.160881 0.000008 0.000001 -0.000038 -10.592883 -0.524720 -2.231970 73.930944 18.598358 -14.050685 -27.841534 0.000023 0.000543 -53.071109 108.193960 69.192460 -28.328821 0.000021 0.000025 -0.000318 -0.000045 0.000007 -2.464417 -1.573841 2.682356 -41.375094 -155.829741 4.145149 -3.215273 -1.872538 1.924633 152.998765 33.744037 19.164259 -2.654940 -1.527880 1.513086 147.541976 26.655057 -38.726677 -2.018850 -1.152014 1.108066 -0.000003 -0.000003 0.000002 -9.108397 -0.517568 2.260134 102.196050 17.095755 -21.160199 -3.700091 0.000313 0.001516 98.290042 13.827642 -15.935132 -2.850086 0.000370 -0.000265 95.561552 11.197813 -12.331710 -2.772166 -0.000014 -0.000019 0.000000 -0.000000 0.000001 -9.532608 0.000271 0.000250 95.541383 17.079665 -18.945145 -3.700070 0.000336 0.003984 94.527749 11.243984 -12.061563 -2.950077 0.000320 -0.001799 95.974424 11.042776 -12.242131 -2.946631 0.000002 -0.000158 0.000004 -0.000001 -0.000000 -9.103711 -0.042762 -1.864848 94.013463 18.262546 -19.515795 -3.379313 0.000334 -0.000815 93.576856 7.897559 -8.422922 -2.889743 0.000365 0.000651 100.162689 5.952214 -7.165026 -2.638806 0.000012 0.000943 -0.000005 0.000001 0.000002 -8.076763 -0.486419 -3.806024 85.843532 20.230780 -18.695734 -3.600043 0.000284 -0.003522 87.559009 8.288698 -7.604316 -2.100014 0.000304 -0.005485 91.456663 4.103520 -3.989117 -2.115772 -0.000055 -0.003677 0.000003 0.000001 -0.000005 4.570446 11.014691 -2.160851 -0.000018 0.000010 -0.000021 10.592557 -0.524511 -2.232414 85.440271 -62.158157 58.199489 27.841793 -0.000058 -0.000110 -154.663937 -71.050018 -145.048752 28.328840 -0.000012 0.000018 0.000020 -0.000088 -0.000000 2.466179 -1.576126 2.681921 91.968886 147.546225 -146.291683 3.217790 -1.872045 1.916534 238.735493 50.663683 425.502508 2.655960 -1.528825 1.514638 34.966655 -234.589377 270.737497 2.020894 -1.154056 1.115147 0.000001 -0.000002 0.000004 9.109250 -0.517659 2.260019 -159.757360 -3.441247 -19.059329 3.699805 0.000336 -0.000192 16.414946 -171.897666 127.655962 2.849775 0.000326 0.000476 -164.615455 -10.364130 -67.757150 2.774890 -0.000046 -0.000023 0.000001 0.000002 -0.000001 9.533397 0.000385 0.000232 -144.265780 -1.956040 -6.042008 3.699988 0.000215 0.000015 253.714180 -5.635936 -7.510707 2.949958 0.000151 0.000181 271.916388 -21.229963 -20.547979 2.952881 -0.000013 0.000065 0.000001 0.000001 -0.000000 9.104556 -0.042684 -1.864869 -139.577265 2.036565 5.523602 3.150059 0.000176 0.000221 252.067148 16.975395 23.183764 2.949994 0.000114 0.000278 -263.950529 176.254630 183.368244 2.644322 0.000045 0.000056 0.000001 0.000001 0.000001 8.077785 -0.486513 -3.806076 32.258410 -179.980266 178.328699 3.600013 0.000166 0.014922 262.949333 18.227290 19.974593 2.100013 0.000034 0.007817 -416.127144 26.172643 373.809205 2.125521 -0.000025 0.007510 0.000002 -0.000002 -0.000007 -8.207786 -6.751667 -1.599560 -0.077001 -0.000003 0.000080 -0.000002 -44.370110 0.345938 0.153719 -0.000000 -0.000000 0.000000 -44.423679 -3.043532 -0.076700 0.000000 -0.000002 -0.000006 -8.728667 10.710559 -0.000009 -0.000000 -0.000000 -0.000001 -0.000679 9.278123 0.000000 -0.000000 -0.000000 8.207792 -6.751710 -1.599556 -0.074518 -0.000003 0.000081 -0.000002 -44.370014 0.346960 0.148822 0.000002 0.000000 -0.000001 -44.423664 -3.044403 -0.074314 0.000000 -0.000002 -0.000004 -8.728671 10.710558 0.000007 -0.000000 -0.000000 0.000000 -0.000680 9.278137 -0.000000 0.000000 -0.000001 
0.000006 104.270477 1.554256 0.000010 0.000003 -0.000113 -0.000005 10.181587 0.131522 0.000001 -0.000003 0.000084 -0.000000 9.893967 -1.470711 0.000001 0.000000 -0.000000 -0.000000 9.220802 -1.370642 0.000000 -0.000000 -0.000000 0.000001 16.740433 -2.049030 0.000000 -0.000000 -0.000000 0.000000 9.617859 1.685014 0.000000 0.000000 0.000000 0.000002 22.037384 7.501101 0.000000 -0.000000 0.000000 -4.569968 11.014880 -2.160881 0.000008 0.000001 -0.000038 -10.592879 -0.524720 -2.231935 73.688882 19.747400 -14.861213 -27.841526 0.000012 0.000538 -52.834805 107.745148 68.476369 -28.328817 0.000007 0.000026 -0.000322 -0.000045 0.000009 -2.464408 -1.573865 2.682347 -39.563823 -154.587712 7.685959 -3.215268 -1.872562 1.924618 152.372122 33.647482 19.540965 -2.654971 -1.527893 1.513092 146.973390 26.887207 -37.566918 -2.018824 -1.151984 1.108054 -0.000000 -0.000009 0.000004 -9.108383 -0.517560 2.260143 101.682160 16.962416 -20.809379 -3.700069 0.000313 0.001528 98.797471 13.550249 -15.754729 -2.850091 0.000374 -0.000258 96.788282 10.941377 -12.309982 -2.772161 -0.000014 -0.000020 -0.000003 0.000000 -0.000001 -9.532603 0.000247 0.000240 94.121940 17.064408 -18.471611 -3.700060 0.000331 0.003971 95.118464 11.531402 -12.499441 -2.950076 0.000327 -0.001796 97.450359 11.222233 -12.765144 -2.946635 0.000014 -0.000152 -0.000001 0.000001 0.000001 -9.103706 -0.042782 -1.864851 92.050473 18.987800 -19.619546 -3.379301 0.000329 -0.000802 94.144035 8.443672 -9.093378 -2.889759 0.000371 0.000674 101.899736 5.874256 -7.293193 -2.638813 -0.000000 0.000940 -0.000004 0.000001 -0.000002 -8.076756 -0.486407 -3.806021 84.025014 20.185354 -18.078049 -3.600044 0.000283 -0.003531 86.930959 8.319764 -7.550855 -2.100019 0.000332 -0.005475 91.609140 4.049197 -3.944060 -2.115771 -0.000018 -0.003678 -0.000000 -0.000001 -0.000002 4.570446 11.014691 -2.160851 -0.000018 0.000010 -0.000021 10.592557 -0.524503 -2.232412 87.322514 -62.280376 59.935709 27.841789 -0.000083 -0.000103 -153.478408 -69.798332 -142.666628 28.328833 -0.000027 0.000008 0.000021 -0.000090 -0.000000 2.466173 -1.576135 2.681905 104.534467 154.763043 -154.563192 3.217816 -1.872012 1.916526 245.426920 47.191006 418.300019 2.656017 -1.528831 1.514596 41.159529 -230.925854 262.336856 2.020887 -1.154053 1.115144 0.000004 0.000009 0.000004 9.109204 -0.517646 2.260001 -158.610667 -5.417131 -28.089792 3.699831 0.000358 -0.000191 19.869949 -171.915452 136.016018 2.849745 0.000322 0.000477 -165.716782 -11.284148 -76.509395 2.774883 -0.000015 -0.000032 -0.000000 0.000002 0.000001 9.533338 0.000293 0.000266 -114.451205 -15.046350 -23.176558 3.700004 -0.000011 -0.000223 357.056198 -0.451031 -0.011540 2.950007 0.000032 -0.000160 391.582859 -2.240597 0.634486 2.952860 -0.000032 0.000060 0.000001 -0.000000 -0.000001 9.104504 -0.042803 -1.864828 -104.911166 -5.542551 -7.209575 3.149978 0.000019 -0.000027 359.599597 26.799497 0.095023 2.949953 0.000043 -0.000096 -149.114108 166.544491 176.267238 2.644324 0.000043 0.000040 -0.000000 -0.000002 0.000001 8.077768 -0.486659 -3.806021 76.037682 -174.783462 172.791273 3.599939 -0.000018 0.014746 352.014863 19.401716 1.266353 2.099968 0.000017 0.007579 -333.820414 18.471806 355.691718 2.125504 -0.000001 0.007513 0.000001 0.000005 -0.000000 -8.207786 -6.751667 -1.599560 -0.077001 -0.000003 0.000080 -0.000002 -44.370110 0.345938 0.153719 -0.000000 -0.000000 0.000000 -44.423679 -3.043532 -0.076700 0.000000 -0.000002 -0.000006 -8.728667 10.710559 -0.000009 -0.000000 -0.000000 -0.000001 -0.000679 9.278123 0.000000 -0.000000 -0.000000 8.207792 -6.751710 -1.599556 -0.074518 -0.000003 0.000081 -0.000002 -44.370014 0.346960 0.148822 0.000002 0.000000 -0.000001 -44.423664 -3.044403 -0.074314 0.000000 -0.000002 -0.000004 -8.728671 10.710558 0.000007 -0.000000 -0.000000 0.000000 -0.000680 9.278137 -0.000000 0.000000 -0.000001 
